{
    "asset" : {
        "generator" : "Khronos glTF Blender I/O v3.4.50",
        "version" : "2.0"
    },
    "scene" : 0,
    "scenes" : [
        {
            "name" : "Scene",
            "nodes" : [
                0
            ]
        }
    ],
    "nodes" : [
        {
            "mesh" : 0,
            "name" : "Macchina2.001_Multicolor_0",
            "rotation" : [
                0,
                -0.7071068286895752,
                -0.7071068286895752,
                1.3767878215276141e-07
            ],
            "scale" : [
                0.822699785232544,
                0.06000221148133278,
                0.06657439470291138
            ],
            "translation" : [
                0,
                0,
                0
            ]
        }
    ],
    "animations" : [
        {
            "channels" : [
                {
                    "sampler" : 0,
                    "target" : {
                        "node" : 0,
                        "path" : "translation"
                    }
                },
                {
                    "sampler" : 1,
                    "target" : {
                        "node" : 0,
                        "path" : "rotation"
                    }
                },
                {
                    "sampler" : 2,
                    "target" : {
                        "node" : 0,
                        "path" : "scale"
                    }
                }
            ],
            "name" : "Macchina2.001_Multicolor_0",
            "samplers" : [
                {
                    "input" : 4,
                    "interpolation" : "LINEAR",
                    "output" : 5
                },
                {
                    "input" : 4,
                    "interpolation" : "LINEAR",
                    "output" : 6
                },
                {
                    "input" : 4,
                    "interpolation" : "LINEAR",
                    "output" : 7
                }
            ]
        }
    ],
    "materials" : [
        {
            "doubleSided" : true,
            "name" : "Multicolor",
            "pbrMetallicRoughness" : {
                "baseColorTexture" : {
                    "index" : 0
                },
                "metallicFactor" : 0,
                "roughnessFactor" : 0.9066694378852844
            }
        }
    ],
    "meshes" : [
        {
            "name" : "Macchina2.001_Multicolor_0",
            "primitives" : [
                {
                    "attributes" : {
                        "POSITION" : 0,
                        "TEXCOORD_0" : 1,
                        "NORMAL" : 2
                    },
                    "indices" : 3,
                    "material" : 0
                }
            ]
        }
    ],
    "textures" : [
        {
            "sampler" : 0,
            "source" : 0
        }
    ],
    "images" : [
        {
            "bufferView" : 4,
            "mimeType" : "image/png",
            "name" : "Multicolor_baseColor"
        }
    ],
    "accessors" : [
        {
            "bufferView" : 0,
            "componentType" : 5126,
            "count" : 2661,
            "max" : [
                1.0372083187103271,
                0.08131608366966248,
                20.323617935180664
            ],
            "min" : [
                -1.0357282161712646,
                -63.808258056640625,
                -1.5284655094146729
            ],
            "type" : "VEC3"
        },
        {
            "bufferView" : 1,
            "componentType" : 5126,
            "count" : 2661,
            "type" : "VEC2"
        },
        {
            "bufferView" : 2,
            "componentType" : 5126,
            "count" : 2661,
            "type" : "VEC3"
        },
        {
            "bufferView" : 3,
            "componentType" : 5123,
            "count" : 3261,
            "type" : "SCALAR"
        },
        {
            "bufferView" : 5,
            "componentType" : 5126,
            "count" : 224,
            "max" : [
                9.333333333333334
            ],
            "min" : [
                0.041666666666666664
            ],
            "type" : "SCALAR"
        },
        {
            "bufferView" : 6,
            "componentType" : 5126,
            "count" : 224,
            "type" : "VEC3"
        },
        {
            "bufferView" : 7,
            "componentType" : 5126,
            "count" : 224,
            "type" : "VEC4"
        },
        {
            "bufferView" : 8,
            "componentType" : 5126,
            "count" : 224,
            "type" : "VEC3"
        }
    ],
    "bufferViews" : [
        {
            "buffer" : 0,
            "byteLength" : 31932,
            "byteOffset" : 0,
            "target" : 34962
        },
        {
            "buffer" : 0,
            "byteLength" : 21288,
            "byteOffset" : 31932,
            "target" : 34962
        },
        {
            "buffer" : 0,
            "byteLength" : 31932,
            "byteOffset" : 53220,
            "target" : 34962
        },
        {
            "buffer" : 0,
            "byteLength" : 6522,
            "byteOffset" : 85152,
            "target" : 34963
        },
        {
            "buffer" : 0,
            "byteLength" : 29488,
            "byteOffset" : 91676
        },
        {
            "buffer" : 0,
            "byteLength" : 896,
            "byteOffset" : 121164
        },
        {
            "buffer" : 0,
            "byteLength" : 2688,
            "byteOffset" : 122060
        },
        {
            "buffer" : 0,
            "byteLength" : 3584,
            "byteOffset" : 124748
        },
        {
            "buffer" : 0,
            "byteLength" : 2688,
            "byteOffset" : 128332
        }
    ],
    "samplers" : [
        {
            "magFilter" : 9729,
            "minFilter" : 9987
        }
    ],
    "buffers" : [
        {
            "byteLength" : 131020,
            "uri" : "data:application/octet-stream;base64,"
        }
    ]
}
