{
    "asset" : {
        "generator" : "Khronos glTF Blender I/O v3.4.50",
        "version" : "2.0"
    },
    "scene" : 0,
    "scenes" : [
        {
            "name" : "Scene",
            "nodes" : [
                0
            ]
        }
    ],
    "nodes" : [
        {
            "mesh" : 0,
            "name" : "Taxi.001_Multicolor_0",
            "rotation" : [
                0,
                1,
                0,
                1.9470718370939721e-07
            ],
            "scale" : [
                0.23163127899169922,
                0.2316313236951828,
                0.2316313236951828
            ],
            "translation" : [
                -27.26059341430664,
                6.787903308868408,
                6.381956577301025
            ]
        }
    ],
    "animations" : [
        {
            "channels" : [
                {
                    "sampler" : 0,
                    "target" : {
                        "node" : 0,
                        "path" : "translation"
                    }
                },
                {
                    "sampler" : 1,
                    "target" : {
                        "node" : 0,
                        "path" : "rotation"
                    }
                },
                {
                    "sampler" : 2,
                    "target" : {
                        "node" : 0,
                        "path" : "scale"
                    }
                }
            ],
            "name" : "Taxi.001_Multicolor_0",
            "samplers" : [
                {
                    "input" : 4,
                    "interpolation" : "LINEAR",
                    "output" : 5
                },
                {
                    "input" : 4,
                    "interpolation" : "LINEAR",
                    "output" : 6
                },
                {
                    "input" : 4,
                    "interpolation" : "LINEAR",
                    "output" : 7
                }
            ]
        }
    ],
    "materials" : [
        {
            "doubleSided" : true,
            "name" : "Multicolor",
            "pbrMetallicRoughness" : {
                "baseColorTexture" : {
                    "index" : 0
                },
                "metallicFactor" : 0,
                "roughnessFactor" : 0.9066694378852844
            }
        }
    ],
    "meshes" : [
        {
            "name" : "Taxi.001_Multicolor_0",
            "primitives" : [
                {
                    "attributes" : {
                        "POSITION" : 0,
                        "TEXCOORD_0" : 1,
                        "NORMAL" : 2
                    },
                    "indices" : 3,
                    "material" : 0
                }
            ]
        }
    ],
    "textures" : [
        {
            "sampler" : 0,
            "source" : 0
        }
    ],
    "images" : [
        {
            "bufferView" : 4,
            "mimeType" : "image/png",
            "name" : "Multicolor_baseColor"
        }
    ],
    "accessors" : [
        {
            "bufferView" : 0,
            "componentType" : 5126,
            "count" : 3189,
            "max" : [
                5.146874904632568,
                0.8949384689331055,
                8.144886016845703
            ],
            "min" : [
                -2.848734140396118,
                -6.549842834472656,
                -10.229496002197266
            ],
            "type" : "VEC3"
        },
        {
            "bufferView" : 1,
            "componentType" : 5126,
            "count" : 3189,
            "type" : "VEC2"
        },
        {
            "bufferView" : 2,
            "componentType" : 5126,
            "count" : 3189,
            "type" : "VEC3"
        },
        {
            "bufferView" : 3,
            "componentType" : 5123,
            "count" : 3717,
            "type" : "SCALAR"
        },
        {
            "bufferView" : 5,
            "componentType" : 5126,
            "count" : 224,
            "max" : [
                9.333333333333334
            ],
            "min" : [
                0.041666666666666664
            ],
            "type" : "SCALAR"
        },
        {
            "bufferView" : 6,
            "componentType" : 5126,
            "count" : 224,
            "type" : "VEC3"
        },
        {
            "bufferView" : 7,
            "componentType" : 5126,
            "count" : 224,
            "type" : "VEC4"
        },
        {
            "bufferView" : 8,
            "componentType" : 5126,
            "count" : 224,
            "type" : "VEC3"
        }
    ],
    "bufferViews" : [
        {
            "buffer" : 0,
            "byteLength" : 38268,
            "byteOffset" : 0,
            "target" : 34962
        },
        {
            "buffer" : 0,
            "byteLength" : 25512,
            "byteOffset" : 38268,
            "target" : 34962
        },
        {
            "buffer" : 0,
            "byteLength" : 38268,
            "byteOffset" : 63780,
            "target" : 34962
        },
        {
            "buffer" : 0,
            "byteLength" : 7434,
            "byteOffset" : 102048,
            "target" : 34963
        },
        {
            "buffer" : 0,
            "byteLength" : 29488,
            "byteOffset" : 109484
        },
        {
            "buffer" : 0,
            "byteLength" : 896,
            "byteOffset" : 138972
        },
        {
            "buffer" : 0,
            "byteLength" : 2688,
            "byteOffset" : 139868
        },
        {
            "buffer" : 0,
            "byteLength" : 3584,
            "byteOffset" : 142556
        },
        {
            "buffer" : 0,
            "byteLength" : 2688,
            "byteOffset" : 146140
        }
    ],
    "samplers" : [
        {
            "magFilter" : 9729,
            "minFilter" : 9987
        }
    ],
    "buffers" : [
        {
            "byteLength" : 148828,
            "uri" : "data:application/octet-stream;base64,"
        }
    ]
}
