{
    "asset" : {
        "generator" : "Khronos glTF Blender I/O v3.4.50",
        "version" : "2.0"
    },
    "scene" : 0,
    "scenes" : [
        {
            "name" : "Scene",
            "nodes" : [
                0
            ]
        }
    ],
    "nodes" : [
        {
            "mesh" : 0,
            "name" : "Police car.005_Multicolor_0",
            "rotation" : [
                -0.7071069478988647,
                0,
                0,
                0.7071065902709961
            ],
            "scale" : [
                1.0969709157943726,
                1.096971035003662,
                1.096971035003662
            ],
            "translation" : [
                0,
                0,
                0
            ]
        }
    ],
    "animations" : [
        {
            "channels" : [
                {
                    "sampler" : 0,
                    "target" : {
                        "node" : 0,
                        "path" : "translation"
                    }
                },
                {
                    "sampler" : 1,
                    "target" : {
                        "node" : 0,
                        "path" : "rotation"
                    }
                },
                {
                    "sampler" : 2,
                    "target" : {
                        "node" : 0,
                        "path" : "scale"
                    }
                }
            ],
            "name" : "Police car.005_Multicolor_0",
            "samplers" : [
                {
                    "input" : 4,
                    "interpolation" : "LINEAR",
                    "output" : 5
                },
                {
                    "input" : 4,
                    "interpolation" : "LINEAR",
                    "output" : 6
                },
                {
                    "input" : 4,
                    "interpolation" : "LINEAR",
                    "output" : 7
                }
            ]
        }
    ],
    "materials" : [
        {
            "doubleSided" : true,
            "name" : "Multicolor",
            "pbrMetallicRoughness" : {
                "baseColorTexture" : {
                    "index" : 0
                },
                "metallicFactor" : 0,
                "roughnessFactor" : 0.9066694378852844
            }
        }
    ],
    "meshes" : [
        {
            "name" : "Police car.005_Multicolor_0",
            "primitives" : [
                {
                    "attributes" : {
                        "POSITION" : 0,
                        "TEXCOORD_0" : 1,
                        "NORMAL" : 2
                    },
                    "indices" : 3,
                    "material" : 0
                }
            ]
        }
    ],
    "textures" : [
        {
            "sampler" : 0,
            "source" : 0
        }
    ],
    "images" : [
        {
            "bufferView" : 4,
            "mimeType" : "image/png",
            "name" : "Multicolor_baseColor"
        }
    ],
    "accessors" : [
        {
            "bufferView" : 0,
            "componentType" : 5126,
            "count" : 2774,
            "max" : [
                0.8605908155441284,
                2.0143585205078125,
                1.400704026222229
            ],
            "min" : [
                -0.8593624830245972,
                -1.4365795850753784,
                -0.186496302485466
            ],
            "type" : "VEC3"
        },
        {
            "bufferView" : 1,
            "componentType" : 5126,
            "count" : 2774,
            "type" : "VEC2"
        },
        {
            "bufferView" : 2,
            "componentType" : 5126,
            "count" : 2774,
            "type" : "VEC3"
        },
        {
            "bufferView" : 3,
            "componentType" : 5123,
            "count" : 3471,
            "type" : "SCALAR"
        },
        {
            "bufferView" : 5,
            "componentType" : 5126,
            "count" : 224,
            "max" : [
                9.333333333333334
            ],
            "min" : [
                0.041666666666666664
            ],
            "type" : "SCALAR"
        },
        {
            "bufferView" : 6,
            "componentType" : 5126,
            "count" : 224,
            "type" : "VEC3"
        },
        {
            "bufferView" : 7,
            "componentType" : 5126,
            "count" : 224,
            "type" : "VEC4"
        },
        {
            "bufferView" : 8,
            "componentType" : 5126,
            "count" : 224,
            "type" : "VEC3"
        }
    ],
    "bufferViews" : [
        {
            "buffer" : 0,
            "byteLength" : 33288,
            "byteOffset" : 0,
            "target" : 34962
        },
        {
            "buffer" : 0,
            "byteLength" : 22192,
            "byteOffset" : 33288,
            "target" : 34962
        },
        {
            "buffer" : 0,
            "byteLength" : 33288,
            "byteOffset" : 55480,
            "target" : 34962
        },
        {
            "buffer" : 0,
            "byteLength" : 6942,
            "byteOffset" : 88768,
            "target" : 34963
        },
        {
            "buffer" : 0,
            "byteLength" : 29488,
            "byteOffset" : 95712
        },
        {
            "buffer" : 0,
            "byteLength" : 896,
            "byteOffset" : 125200
        },
        {
            "buffer" : 0,
            "byteLength" : 2688,
            "byteOffset" : 126096
        },
        {
            "buffer" : 0,
            "byteLength" : 3584,
            "byteOffset" : 128784
        },
        {
            "buffer" : 0,
            "byteLength" : 2688,
            "byteOffset" : 132368
        }
    ],
    "samplers" : [
        {
            "magFilter" : 9729,
            "minFilter" : 9987
        }
    ],
    "buffers" : [
        {
            "byteLength" : 135056,
            "uri" : "data:application/octet-stream;base64,"
        }
    ]
}
